<?xml version="1.0"?><svg width="36" height="36" xmlns="http://www.w3.org/2000/svg">

 <g>
  <title>Layer 2</title>
  <circle id="svg_5" r="16.417969" cy="17.600001" cx="18" stroke-width="0" stroke="#ff7f00" fill="#ffffff"/>
 </g>
 <g>
  <title>Layer 1</title>
  <g id="svg_1">
   <path id="svg_2" d="m0.001282,17.908501c0,9.890999 8.018,17.909 17.908001,17.909c9.892002,0 17.91,-8.019001 17.91,-17.909s-8.019001,-17.909 -17.91,-17.909c-9.891001,0 -17.908001,8.018 -17.908001,17.909zm3.508999,2.467999l0,-0.469002c0,-1.915997 1.451,-4.453999 3.595999,-5.387997c0.166,-4.181002 3.620001,-7.529001 7.842001,-7.529001c2.813,0 5.396999,1.515999 6.791,3.921c0.538998,-0.233999 1.123001,-0.355 1.721001,-0.355c2.143997,0 3.913998,1.525 4.277,3.573999c2.925999,0.580999 5.042999,3.400999 5.042999,5.776999l0,0.469002c0,2.893002 -2.975002,5.43 -6.367001,5.43l-16.535,0c-3.392,0 -6.368,-2.536999 -6.368,-5.43z" fill="#262261"/>
   <g id="svg_3">
    <path id="svg_4" d="m22.134281,12.970501l-1.236,0.854l-0.615002,-1.371c-0.942997,-2.104 -3.036999,-3.462 -5.334999,-3.462c-1.563,0 -3.028999,0.611 -4.132,1.721001c-1.105999,1.114 -1.714998,2.601 -1.713999,4.174999l0.024,1.091999l-0.921001,0.267002c-1.492998,0.432999 -2.695,2.356998 -2.695,3.662998l0,0.469002c0,1.585999 1.907001,3.43 4.367001,3.43l16.535,0c2.459999,0 4.367001,-1.844002 4.367001,-3.43l0,-0.469002c0,-1.597 -1.768002,-3.696999 -3.831001,-3.872997l-1.107998,-0.094002l-0.035999,-1.111c-0.041,-1.274 -1.071003,-2.273001 -2.345001,-2.273001c-0.475002,-0.002001 -0.933002,0.140999 -1.325001,0.412001z" fill="#262261"/>
   </g>
  </g>
 </g>
</svg>